<svg  viewBox="0 0 24 24" fill="none" xmlns="http://www.w3.org/2000/svg">
<path d="M23 15.3385V8.66154C23 6.80316 22.026 5.08604 20.445 4.15737L14.5522 0.695835C12.9727 -0.231945 11.0273 -0.231945 9.44785 0.695835L3.55499 4.15737C1.97403 5.08604 1 6.80316 1 8.66154V15.3385C1 17.1968 1.97403 18.914 3.55499 19.8426L9.44785 23.3042C11.0273 24.2319 12.9727 24.2319 14.5522 23.3042L20.445 19.8426C22.026 18.914 23 17.1968 23 15.3385Z" fill="url(#paint0_linear_2896_375826)"/>
<path fill-rule="evenodd" clip-rule="evenodd" d="M21.5 15.3385V8.66154C21.5 7.32613 20.8 6.10554 19.6853 5.45074L13.7924 1.9892L14.5402 0.716211L13.7924 1.9892C12.682 1.33693 11.318 1.33693 10.2076 1.9892L4.31473 5.45074C3.20001 6.10554 2.5 7.32613 2.5 8.66154V15.3385C2.5 16.6739 3.20001 17.8945 4.31473 18.5493L10.2076 22.0108C11.318 22.6631 12.682 22.6631 13.7924 22.0108L19.6853 18.5493C20.8 17.8945 21.5 16.6739 21.5 15.3385ZM23 8.66154V15.3385C23 17.1968 22.026 18.914 20.445 19.8426L14.5522 23.3042C12.9727 24.2319 11.0273 24.2319 9.44785 23.3042L3.55499 19.8426C1.97403 18.914 1 17.1968 1 15.3385V8.66154C1 6.80316 1.97403 5.08604 3.55499 4.15737L9.44785 0.695835C11.0273 -0.231945 12.9727 -0.231945 14.5522 0.695835L20.445 4.15737C22.026 5.08604 23 6.80316 23 8.66154Z" fill="url(#paint1_linear_2896_375826)"/>
<defs>
<linearGradient id="paint0_linear_2896_375826" x1="23" y1="12" x2="1" y2="12" gradientUnits="userSpaceOnUse">
<stop stop-color="#24E059"/>
<stop offset="1" stop-color="#19C84A"/>
</linearGradient>
<linearGradient id="paint1_linear_2896_375826" x1="12" y1="0" x2="12" y2="24" gradientUnits="userSpaceOnUse">
<stop stop-color="white" stop-opacity="0.48"/>
<stop offset="1" stop-color="white" stop-opacity="0"/>
</linearGradient>
</defs>
</svg>
